<?xml version="1.0" encoding="UTF-8"?>
<svg id="Layer_1" data-name="Layer 1" xmlns="http://www.w3.org/2000/svg" viewBox="0 0 121.64 52.13">
  <defs>
    <style>
      .cls-1 {
        fill: #c1cc30;
      }

      .cls-2 {
        fill: #b3c98b;
      }

      .cls-3 {
        fill: #78a23f;
      }

      .cls-4 {
        fill: #807f83;
      }
    </style>
  </defs>
  <g>
    <path id="path3057" class="cls-1" d="m67.26,5.68c-2.29,2.99-2.35,7.9-.83,13.99,2.14,8.58,5.84,17.25,7.56,23.04,1.99,5.92,2,8.96,2.77,9.36.08.04.16.06.27.06,1.01,0,3.56-1.58,8.96-3.22,5.72-1.95,14.93-3.95,23.16-7.17,5.8-2.27,9.76-5.14,10.91-8.7-1.84,2.49-5.21,4.58-9.66,6.33-8.24,3.22-17.45,5.23-23.17,7.17-5.39,1.63-7.94,3.22-8.95,3.22-.11,0-.2-.02-.28-.06-.77-.4-.78-3.43-2.77-9.36-1.72-5.79-5.42-14.46-7.56-23.04-1.17-4.68-1.41-8.66-.41-11.62m16.19,4.49c-1.32,0-2.52.17-3.55.51-4.01,1.23-5.6,4.98-5.29,10.19.31,5.21,1.93,10.61,3.12,14.54,1.32,3.99,2.22,6.5,3.86,7.35.49.25,1.07.37,1.74.37,1.57,0,3.67-.61,6.48-1.47,3.89-1.3,9.23-3.11,13.66-5.87,4.43-2.76,6.57-6.23,5.25-10.21-1.2-3.92-5.86-8.38-12.23-11.67-4.69-2.42-9.35-3.72-13.04-3.72m1.13,31.67c-.92,0-1.7-.15-2.3-.46-2.9-1.5-5.2-8.75-5.16-16.2.02-4.86,3.1-7.54,7.72-7.54,2.46,0,5.37.77,8.48,2.37,8.93,4.61,11.23,11.86,5.17,16.2-4.81,3.45-10.36,5.63-13.9,5.63"/>
    <path id="path3061" class="cls-3" d="m77.07,0c-1.74,0-3.29.21-4.58.65-2.72.82-4.41,2.57-5.24,5.03.94-1.22,2.26-2.12,3.99-2.65,1.29-.44,2.84-.65,4.59-.65,5.99,0,14.35,2.5,22.98,6.96,11.16,5.76,19.39,13.04,21.11,18.83.59,1.75.61,3.37.13,4.87,1.57-2.12,2.03-4.52,1.11-7.25-1.72-5.78-9.96-13.06-21.11-18.82-8.64-4.46-17-6.97-22.99-6.97"/>
    <path id="path3065" class="cls-2" d="m77.07,0c-1.74,0-3.29.21-4.58.65-2.72.82-4.41,2.57-5.24,5.03.94-1.22,2.26-2.12,3.99-2.65,1.29-.44,2.84-.65,4.59-.65,5.99,0,14.35,2.5,22.98,6.96,11.16,5.76,19.39,13.04,21.11,18.83.59,1.75.61,3.37.13,4.87,1.57-2.12,2.03-4.52,1.11-7.25-1.72-5.78-9.96-13.06-21.11-18.82-8.64-4.46-17-6.97-22.99-6.97"/>
    <path id="path3069" class="cls-3" d="m75.84,2.38c-1.75,0-3.3.21-4.59.65-1.74.52-3.05,1.42-3.99,2.65-.99,2.95-.76,6.94.41,11.62,2.14,8.58,5.84,17.25,7.56,23.04,1.99,5.93,2,8.96,2.77,9.36.08.04.17.06.28.06,1.01,0,3.56-1.59,8.95-3.22,5.72-1.94,14.93-3.95,23.17-7.17,4.45-1.74,7.82-3.83,9.66-6.32.48-1.5.46-3.12-.13-4.87-1.72-5.79-9.96-13.07-21.11-18.83-8.63-4.46-16.99-6.96-22.98-6.96m7.48,40.75c-.68,0-1.25-.11-1.74-.37-1.64-.84-2.54-3.36-3.86-7.35-1.2-3.93-2.81-9.33-3.12-14.54-.31-5.21,1.28-8.96,5.29-10.19,1.03-.34,2.23-.51,3.55-.51,3.69,0,8.35,1.3,13.04,3.72,6.37,3.29,11.02,7.74,12.23,11.67,1.32,3.99-.82,7.46-5.25,10.22-4.43,2.76-9.77,4.58-13.66,5.87-2.81.86-4.91,1.47-6.48,1.47"/>
  </g>
  <g>
    <path id="path3009" class="cls-4" d="m38.48,26.06h-7.96v-.13s.51-4.52,6.91-4.74c.32,0,.57.08.75.27.32.33.29.83.29.87v3.71Zm7.74-6.24s0-.07,0-.14c0-.05,0-.1.02-.1,0,0-.21.11-.21.12,0,0-.6.33-.6.33l-.59.27c-.08.04-.17.08-.19.53v.11s0,5.19,0,5.19h-4.53v-4.66c0-.71-.17-1.22-.52-1.55-.35-.33-.9-.48-1.63-.43-.04,0-4.02-.13-7.17,2.47l-.59.67-.2.26-.12-.31c-.12-.3-.31-.61-.61-.97,0,0-.2-.21-.2-.22,0,0-.08-.07-.16-.14.02.22.07.74.07,1.43v3.37h-2.55s0-11.6,0-11.6c0-.19-.02-.25.01-.25,0,0-.21.12-.22.12,0,0-.6.33-.6.33l-.59.27c-.08.04-.19.08-.19.62v10.42c-.02.59,0,.86.31,1.25.16.21.46.6,1.32.6h2.44v.18c-.01.87-.47,2.34-.48,2.37,0,0-.02.05-.03.1.15-.09.36-.25.62-.47.7-.83,1.03-1.58,1.19-2.05l.04-.12h10.56s3.61,0,3.62,0c0,0,.71.04,1.16-.28.48-.36.64-.64.64-1.59,0,0,0-3.34,0-4.3,0-.16,0-1.8,0-1.83"/>
    <path id="path3013" class="cls-4" d="m14.55,20.73s0,0,0,0h0s0,0,0,0Zm-1.67,5.29v-3.73c0-.54.11-.59.19-.62l.59-.27s.74-.41.79-.44c0,.03.02.09.02.22,0,0,0,5.2,0,5.2,0,.37-.19.79-.49,1.07-.43.4-.9.4-1.22.4-.05,0-8.76,0-8.76,0-.15,0-1.49-.06-2.28-1.41-.34-.59-.52-1.27-.52-2.02,0-.53.08-1.1.26-1.71.14-.45.26-.64.35-.73,0,.05.01.1.02.17,0,.01.23,1.76.63,2.5.7,1.59,2.74,1.48,2.76,1.48-.02,0,7.54,0,7.54,0h.11v-.12Z"/>
    <path id="path3017" class="cls-4" d="m22.3,14.31h0s0,0,0,0Zm-1.67,1.62s0-.06,0-.06c0-.54.1-.59.19-.62,0,0,.59-.27.59-.27,0,0,.73-.4.78-.43.02.04.03.1.03.23v6.02c0,5.41-2.51,6.96-2.71,7.08h-2.39c.82-.55,1.53-1.17,2.07-1.87l.04-.05v-.1s-2.84-6.32-2.84-6.32c0-.01-.39-.88-.39-1.87,0-.68.2-1.42.82-1.99,0,.07.01.14.01.14.06.59.21,1.66.62,2.5.02.03,1.75,3.35,2.43,5.01,0,0,.21.63.21.63l.11.34.11-.33.05-.17c.23-.74.27-1.3.28-1.56h0s0-.06,0-.07v-.11h0s0-6.11,0-6.11Z"/>
    <path id="path3021" class="cls-4" d="m5.81,37.12c.42-.05.73-.13.88-.28.15-.15.14-.46.04-.7-.32-.75-1.18-1.29-2.28-1.29-1.69,0-2.87,1.09-2.87,2.75,0,0,4.03-.45,4.24-.47m.96,1.18l-5.21.53c.21,1.64,1.43,2.26,2.74,2.26h3.34c.48,0,.79.32.79.78,0,.22,0,.67,0,.67h-4.16c-2.32,0-4.27-1.51-4.27-4.6,0-2.64,1.84-4.43,4.46-4.43,1.88,0,3.41,1.15,3.82,2.88.25,1.05-.32,1.77-1.51,1.91"/>
    <path id="path3025" class="cls-4" d="m24.93,33.51c.49,0,.85.23.85.72s-.35.73-.85.73h-3.63c-.76.06-.86.82-.79,1.29.02.15.09.28.2.37.24.2.65.27,1.07.35l2.76.48c1.45.27,2,1,2,2.31,0,2.03-1.25,2.79-3.22,2.79h-4.58s0-.51,0-.73c0-.49.34-.72.85-.72h3.62c1.42,0,1.78-.43,1.78-1.21,0-.71-.2-.96-1.14-1.12l-2.79-.46c-1.41-.23-2.03-.97-2.1-1.92-.11-1.39.46-2.87,2.37-2.87h3.61Z"/>
    <path id="path3029" class="cls-4" d="m33.36,39.31c0,1.54-.87,2.09-2.34,2.09-1.33,0-2.09-.48-2.09-1.54,0-.79.67-1.3,1.47-1.44.8-.14,2.02-.2,2.95-.41v1.3Zm1.55-2.62c0-1.57-.42-3.18-2.76-3.18h-3.27c-.51,0-.85.23-.85.72s.34.73.85.73h3.04c1.08,0,1.43.25,1.43,1.01v.23c-.06.46-.59.57-.85.63-2.19.51-5.13-.05-5.13,3.1,0,1.68,1.43,2.67,3.4,2.67.02,0,1.97.1,2.69-.89,0,0,0,.03,0,.08.05.5.28.76.79.76h.65v-5.86Z"/>
    <path id="path3033" class="cls-4" d="m45.17,39.31c0,1.54-.87,2.09-2.34,2.09-1.33,0-2.09-.48-2.09-1.54,0-.79.67-1.3,1.47-1.44.8-.14,2.02-.2,2.95-.41v1.3Zm1.56-2.62c0-1.57-.43-3.18-2.76-3.18h-3.27c-.51,0-.85.23-.85.72s.34.73.85.73h3.04c1.08,0,1.43.25,1.43,1.01v.23c-.06.46-.59.57-.85.63-2.19.51-5.13-.05-5.13,3.1,0,1.68,1.43,2.67,3.4,2.67.02,0,1.97.1,2.69-.89,0,0,0,.03,0,.08.05.5.28.76.79.76h.65v-5.86Z"/>
    <path id="path3037" class="cls-4" d="m37.99,31.06h-.87c-.76,0-.69.68-.69.68v10.8s1.56,0,1.56,0v-11.49Z"/>
    <path id="path3041" class="cls-4" d="m13.5,41.2c-1.18,0-1.62-.05-1.62-.92v-5.32h1.38c.49,0,.85-.23.85-.72s-.35-.72-.85-.72h-1.38v-1.48h0v-.92h-.66c-.13,0-.22,0-.32.02-.63.07-.57.68-.57.68v1.7h-.42c-.49,0-.85.23-.85.72s.36.72.85.72h.42v5.66c0,1.91,1.33,1.93,3.18,1.93.31,0,.92,0,.92,0,0,0,0-.42,0-.62,0-.44-.35-.72-.92-.72"/>
    <path id="path3045" class="cls-4" d="m52.02,41.2c-1.18,0-1.62-.05-1.62-.92v-5.32h1.38c.5,0,.85-.23.85-.72s-.35-.72-.85-.72h-1.38v-1.48h0v-.92h-.66c-.13,0-.22,0-.32.02-.63.07-.57.68-.57.68v1.7h-.42c-.49,0-.85.23-.85.72s.36.72.85.72h.42v5.66c0,1.91,1.33,1.93,3.18,1.93.31,0,.92,0,.92,0,0,0,0-.42,0-.62,0-.44-.35-.72-.92-.72"/>
    <path id="path3049" class="cls-4" d="m17.32,42.55v-9.03s-.87,0-.87,0c-.59,0-.69.38-.69.69v8.35h1.56Z"/>
    <path id="path3053" class="cls-4" d="m16.37,32.83c.38,0,.58.01.79-.18.17-.15.17-.42.17-.73,0-.18,0-.79,0-.79h-.87c-.59,0-.68.37-.68.69,0,.12,0,1.03,0,1.03,0,0,.45,0,.61,0"/>
    <path id="path3073" class="cls-4" d="m48.94,24.36v-8.55c0-.54.1-.59.19-.63l.59-.27s.82-.46.82-.46c-.01,0-.02.02-.02.05,0,.04,0,.1,0,.2v5.27h0v7.86h-1.59v-3.47Z"/>
    <path id="path3077" class="cls-4" d="m6.77,20.93c.38,0,.58.01.79-.19.17-.15.17-.43.17-.74,0-.18,0-.8,0-.8h-.88c-.59,0-.69.37-.69.69,0,.12,0,1.03,0,1.03h.61Z"/>
    <path id="path3081" class="cls-4" d="m8.82,20.93c.38,0,.58.01.79-.19.17-.15.17-.43.17-.74v-.8h-.88c-.59,0-.69.37-.69.69v1.03h.61Z"/>
    <path id="path3085" class="cls-4" d="m43.25,18.13c.38,0,.58.01.79-.18.17-.15.17-.43.17-.74,0-.18,0-.8,0-.8h-.88c-.59,0-.69.37-.69.69,0,.12,0,1.03,0,1.03,0,0,.45,0,.61,0"/>
    <path id="path3089" class="cls-4" d="m45.31,18.13c.38,0,.58.01.79-.18.17-.15.17-.43.17-.74,0-.18,0-.8,0-.8h-.88c-.59,0-.69.37-.69.69,0,.12,0,1.03,0,1.03,0,0,.45,0,.61,0"/>
  </g>
</svg>