<svg xmlns="http://www.w3.org/2000/svg" viewBox="0 0 664.89 1053.4"><defs><clipPath id="a"><path d="M450 652h214.89v151H450Zm0 0"/></clipPath><clipPath id="b"><path d="M557 894h105v159.398H557Zm0 0"/></clipPath></defs><path d="M580.938 0c2.292.969 4.789.73 7.18 1.148 26.64 4.672 48.6 26.891 52.94 53.653a81.437 81.437 0 0 1 1.055 13.11c-.004 104.366-.004 208.737.008 313.109 0 2.562-.09 5.105-.894 7.566-2.914 8.945-12.559 13.64-21.438 10.383-1.906-.703-3.742-1.617-5.598-2.457-34.28-15.54-68.554-31.094-102.851-46.602-4.422-2-8.477-4.469-11.88-7.953-5.897-6.043-8.987-13.277-9.25-21.715-.034-1.222-.019-2.449-.019-3.676 0-43.808.016-87.62-.007-131.43-.008-15.304-10.082-28.273-24.856-32.171-3.086-.813-6.219-1.035-9.398-1.035-39.422.02-78.84.011-118.258.011-42.793 0-85.582 0-128.371.004-11.66 0-20.938 4.766-27.707 14.223-3.836 5.363-5.813 11.437-5.817 18.074-.011 32.067-.554 64.145.164 96.196.61 27.027 14.133 46.667 38.418 58.332 19.95 9.585 40.278 18.37 60.434 27.515a4913945.005 4913945.005 0 0 1 355.582 161.309c1.113.504 2.242.996 3.305 1.601 7.086 4.043 10.152 12.48 7.336 20.078-2.871 7.735-10.856 12.286-18.914 10.368-12.7-3.02-25.336-6.297-37.989-9.5-49.726-12.602-99.445-25.22-149.168-37.82-56.742-14.38-113.484-28.747-170.23-43.122-57.04-14.453-114.078-28.902-171.113-43.36-7.118-1.804-14.25-3.554-21.34-5.464-25.477-6.879-44.676-29.098-47.867-55.21-.399-3.255-.54-6.509-.54-9.774-.007-95.996-.097-191.993.051-287.989.043-27.773 12.88-48.113 37.551-60.851 6.762-3.5 14.055-5.461 21.68-6.04C83.847.462 84.57.45 85.18 0M0 737.195c1.02-2.492.938-5.156 1.172-7.765.73-8.164 2.16-16.176 4.937-23.914 1.559-4.344 3.567-8.453 6.38-12.149 4.363-5.719 12.073-7.437 18.027-3.992 6.273 3.629 9.011 11.426 6.312 17.996-.23.563-.45 1.149-.781 1.656-5.613 8.606-6.977 18.141-6.293 28.16.258 3.774.5 7.532 1.496 11.204 2.973 10.992 10.336 17.507 21.02 20.617 6.734 1.957 13.656 2.375 20.62 2.238 7.465-.144 14.887-.762 22.11-2.82 3.648-1.04 7.152-2.418 10.25-4.672 7.465-5.442 7.922-14.238 1.063-20.41-2.22-1.992-4.743-3.555-7.368-4.926-5.156-2.691-10.351-5.3-15.527-7.953-6.32-3.246-9.262-8.914-8.121-15.633.894-5.266 5.14-9.164 10.457-9.594 2.582-.21 5.098.059 7.496 1.098 2.152.934 4.324 1.832 6.434 2.848 8.855 4.265 18.238 6.386 27.984 7.242 7.234.629 14.484.808 21.727.613 10.69-.285 19.566-7.738 21.91-18.105.5-2.211.46-4.461.46-6.707.005-32.274.005-64.547-.003-96.817 0-2.156.125-4.277.855-6.332 2.356-6.629 9.078-10.531 16.348-9.476 6.87 1 12.012 6.574 12.441 13.511.059.918.02 1.84.02 2.758.004 32.07 0 64.137.004 96.203 0 2.246-.04 4.496.449 6.711 2.219 10.082 10.918 17.64 21.23 18.188 4.786.254 9.598.18 14.395.113 13.351-.184 23.355-10.262 23.437-23.61.055-9.597.04-19.199-.003-28.796-.012-3.043.628-5.871 2.25-8.453 3.359-5.344 9.906-7.989 15.964-6.454 6.172 1.563 11.164 7.141 11.254 13.372.176 11.742.473 23.511-.14 35.222-.746 14.262-6.34 26.508-17.727 35.637-7.703 6.176-16.633 9.496-26.367 10.523a146.263 146.263 0 0 1-30.883-.039c-11.242-1.203-20.746-5.82-27.55-15.199-.298-.406-.637-.777-.927-1.125-.816.102-1.046.727-1.382 1.191-6.797 9.38-16.23 13.926-27.52 15.235-6.625.765-13.262.445-19.89.55-.91.012-1.84-.152-2.715.196-.22.535.015 1.012.172 1.484 4.585 13.91.902 25.739-9.25 35.782-7.137 7.058-15.957 11.265-25.489 14.03-13.18 3.829-26.64 4.938-40.308 3.868-10.067-.79-19.778-2.938-28.848-7.488-18.305-9.184-28.078-24.25-30.422-44.403-.23-1.992-.137-4.058-1.16-5.898" style="stroke:none;fill-rule:nonzero;fill:#1b9ad7;fill-opacity:1"/><g clip-path="url(#a)"><path d="M504.195 717.102c3.914 0 7.078.027 10.243-.008 2.195-.028 2.234-.067 2.25-2.188.042-5.843-.575-11.613-2.11-17.258-.781-2.863-1.93-5.586-3.574-8.078-2.672-4.039-6.418-6.496-11.14-7.433-3.235-.64-6.5-.602-9.743-.02-6.98 1.25-11.91 5.871-13.195 12.762-2.188 11.726 2.168 19.488 14.59 21.61 4.468.761 8.953.503 12.68.613m135-14.567c.074-4.105-.41-7.933-1.907-11.574-1.773-4.305-4.793-7.336-9.367-8.5-7.656-1.95-14.336-.332-19.664 5.75-2.785 3.187-4.672 6.91-6.254 10.797-1.883 4.62-3.723 9.262-5.567 13.898-.84 2.11-.843 2.14.997 3.446 7.554 5.355 16.007 7.503 25.16 6.617 7.113-.688 12.586-3.957 15.152-11.012 1.129-3.094 1.567-6.324 1.45-9.422m25.695 4.02c-.75.746-.516 1.726-.555 2.61-.32 6.944-2.215 13.48-5.371 19.624-6.61 12.867-17.559 19.82-31.461 22.406-9.688 1.801-19.3 1.453-28.633-2.12-7-2.68-13.07-6.688-17.8-12.552-.997-1.238-1.688-1.593-3.169-.597-9.062 6.125-19.273 8.594-30.054 9.152-.711.035-1.434.106-2.141.043-1.492-.129-2.125.39-2.305 1.992a77.283 77.283 0 0 1-2.37 12.309c-4.372 15.648-12.966 28.043-27.653 35.695-7.524 3.922-15.594 6.035-23.977 6.89-9.59.985-19.172.598-28.683-.984-6.36-1.054-11.293-8.285-10.457-14.82.734-5.738 6.797-12.117 14.258-10.93 6.796 1.082 13.609 1.235 20.457.586 2.855-.27 5.66-.761 8.414-1.527 11.18-3.113 17.43-10.789 20.004-21.789.53-2.273 1.046-4.574.976-6.945-2.238-1.012-4.594-.422-6.883-.426-8.175-.008-16.332-.063-24.375-1.809a55.181 55.181 0 0 1-7.343-2.11c-11.993-4.401-19.426-12.89-22.063-25.339-2.59-12.23-2.11-24.406 2.246-36.195 5.305-14.364 15.309-23.739 30.535-26.719 17.16-3.36 34.16 1.883 44.625 19.246 5.293 8.79 8.114 18.445 9.953 28.442.871 4.718 1.5 9.476 1.829 14.261.101 1.477.484 2.219 2.128 2.176 3.473-.09 6.946-.098 10.36-.848 4.77-1.05 8.672-3.465 11.59-7.425 2.629-3.563 4.496-7.52 6.062-11.633 2.613-6.871 5.445-13.649 9.149-20.024 2.16-3.715 4.597-7.234 7.472-10.441 10.157-11.328 23.063-15.371 37.836-13.813 20.238 2.137 32.215 17.032 36.184 34.473.613 2.691.238 5.496 1.215 8.11" style="stroke:none;fill-rule:nonzero;fill:#1b9ad7;fill-opacity:1"/></g><path d="M317.734 649.59c0-17.567 0-35.133.008-52.7 0-1.43.02-2.863.14-4.285.653-7.636 7.259-13.46 14.981-13.246 7.852.22 14.153 6.207 14.528 13.813.05 1.02.011 2.043.011 3.062.004 34.114.004 68.223 0 102.332 0 2.356.043 4.688.63 6.996 1.16 4.575 3.85 7.797 8.234 9.594 2.671 1.094 5.46 1.719 8.332 1.805 3.98.121 7.964.191 11.945.121 12.906-.23 23.004-10.348 23.16-23.297.117-9.394.031-18.793.024-28.187-.004-2.055.168-4.07.843-6.032 2.371-6.847 9.332-11.023 16.723-10.015 6.484.886 11.953 6.808 12.012 13.89.101 12.043.64 24.11-.282 36.137-1.738 22.738-16.41 39.664-38.867 44.063-13.933 2.73-28.039 2.406-41.937-.95-4.485-1.082-8.703-2.902-12.617-5.379-9.782-6.195-14.965-15.316-16.965-26.496-.793-4.449-.875-8.941-.887-13.43-.035-15.933-.016-31.863-.016-47.796M65.258 830.438c-.059 9.14-8.102 16.925-17.496 16.94-9.375.02-17.133-7.855-17.016-17.265.113-9.242 8.008-16.957 17.184-16.793 9.48.168 17.383 7.977 17.328 17.117M243.453 775.004c.074 9.332-7.437 17.023-16.766 17.168-9.43.144-17.722-7.844-17.714-17.055.011-9.097 8.066-16.957 17.449-17.015 9.273-.055 16.96 7.574 17.031 16.902M72.879 830.344c.004-9.477 7.25-17 16.398-17.024 9.38-.027 17.43 7.746 17.493 16.887.062 9.32-7.973 17.207-17.508 17.176-9.14-.028-16.383-7.563-16.383-17.04M401.434 776.328c-.032 9.57-7.239 16.926-16.508 16.848-9.399-.078-16.86-7.649-16.809-17.055.051-9.36 7.656-16.902 17.016-16.875 9.215.031 16.332 7.492 16.3 17.082M251.684 774.805c.164-9.266 7.902-16.95 16.8-16.7 9.387.266 16.746 8.137 16.512 17.668-.219 9.063-8.16 16.641-17.176 16.395-9.015-.246-16.3-8.09-16.136-17.363" style="stroke:none;fill-rule:nonzero;fill:#1b9ad7;fill-opacity:1"/><g clip-path="url(#b)"><path d="M569.906 1053.398c-.996-.785-2.27-.804-3.402-1.199-6.067-2.094-9.887-7.984-9.227-14.293.68-6.535 5.293-11.363 11.743-12.234 1.414-.192 2.847-.246 4.27-.332 5.222-.317 9.343-2.645 12.464-6.805a41.838 41.838 0 0 0 3.863-6.234c2.031-4.004 3.969-8.055 6.016-12.047.707-1.379.75-2.563.078-4.027-11.91-26.067-22.91-52.54-34.617-78.696-1.133-2.535-1.95-5.129-2.196-7.918-.68-7.765 4.836-13.277 11.051-14.867 6.57-1.683 15.102 1.285 18.14 9.238 6.774 17.715 14.04 35.243 21.126 52.836.433 1.082.68 2.282 1.55 3.203.993-.687 1.09-1.773 1.454-2.687 6.945-17.652 13.867-35.313 20.808-52.965 2.59-6.582 10.743-11.105 17.598-9.805 6.477 1.227 10.969 6.5 11.129 13.125.062 2.68-.309 5.332-1.352 7.793-12.87 30.325-25.285 60.84-38.441 91.04-3.3 7.578-7.106 14.917-11.535 21.917-2.02 3.196-4.278 6.215-6.586 9.207-7.082 9.192-16.492 14.024-27.934 15.168-.984.102-2.062-.14-2.937.582" style="stroke:none;fill-rule:nonzero;fill:#1b9ad7;fill-opacity:1"/></g><path d="M79.422 925.484c1.062-.566 1.5-1.656 2.137-2.55 14.02-19.723 28.011-39.465 42.027-59.192 1.238-1.746 2.559-3.441 3.898-5.113 4.157-5.188 10.332-5.758 15.52-3.863 6.207 2.265 10.23 7.925 10.234 14.562.024 40.852-.047 81.703.063 122.555.02 8.105-7 15.762-15.555 15.625-8.535-.133-15.156-6.793-15.113-15.594.113-23.586.32-47.176.488-70.762.008-1.011 0-2.023 0-3.03-1.113-.235-1.262.687-1.617 1.19a19740.87 19740.87 0 0 0-27.766 39.262c-1.843 2.614-3.976 4.922-6.718 6.614-6.399 3.953-13.75 3.062-19.032-2.29-1.226-1.242-2.222-2.664-3.21-4.09a23774.124 23774.124 0 0 0-26.512-38.269c-.618-.89-1.036-1.976-2.266-2.68-.484 1.176-.262 2.293-.262 3.352-.015 23.184-.043 46.367.016 69.55.012 4.262-.969 8.075-3.793 11.325-4.23 4.871-10.727 6.66-16.676 4.601-5.84-2.019-9.875-7.503-10.258-13.964-.043-.711-.02-1.43-.02-2.145 0-39.933.013-79.863-.019-119.797-.004-4.566 1.02-8.695 4.215-12.101 5.52-5.88 14.2-6.489 20.488-1.446 1.606 1.29 2.891 2.86 4.082 4.536a75782.13 75782.13 0 0 0 43.707 61.378c.582.817 1.016 1.77 1.942 2.336M340.781 953.543c.059 2.707-.12 6.578.457 10.445 1.61 10.735 8.051 17.414 18.797 18.653 11.266 1.297 21.52-3.098 25.59-15.95 1.184-3.73 1.781-7.546 2.012-11.418.468-8.02-.086-15.921-3.29-23.421-4.253-9.954-13.277-14.766-24.843-12.204-9.531 2.114-14.762 8.887-17.531 17.844-1.508 4.863-1.211 9.89-1.192 16.051m.297-46.953c.465-.3.758-.418.957-.63 17.067-17.987 54.375-16.51 68.98 12.563 3.196 6.368 5.137 13.11 6.067 20.13 1.445 10.925 1.234 21.808-1.613 32.519-3.473 13.086-10.422 23.715-22.524 30.34-11.828 6.48-24.386 7.66-37.36 4.144-5.472-1.484-8.163-3.187-14.456-8.41-.813.215-.809 1.027-1.094 1.61-3.11 6.43-10.117 9.867-17.074 8.374-7.047-1.511-11.695-7.324-11.695-14.82-.024-43.504-.012-87.008-.012-130.515 0-.61-.024-1.23.055-1.832.789-6.336 4.062-10.883 10.078-13.079 8.86-3.238 18.648 3.489 19.336 13.114.066 1.015.043 2.043.043 3.062.004 13.375-.004 26.754.011 40.137 0 .992-.199 2.015.301 3.293M257.066 950.71c0-.507.012-1.019 0-1.526-.156-5.735-.625-11.414-2.734-16.825-1.969-5.043-5.113-9.05-10.172-11.28-5.215-2.294-10.691-2.653-16.191-1.516-7.25 1.5-11.98 6.222-15.133 12.69-2.176 4.466-3.188 9.247-3.578 14.157-.645 8.031-.024 15.906 3.258 23.39 2.164 4.938 5.523 8.805 10.484 11.09 13.09 6.028 27.672-.449 31.992-14.16 1.645-5.218 2.008-10.597 2.074-16.02m-24.367 56.778c-8.418.106-16.062-1.008-23.37-3.883-13.157-5.183-21.993-14.675-26.532-27.921-5.434-15.86-5.531-31.954.058-47.766 6.344-17.926 19.247-28.707 37.856-32.438 10.355-2.074 20.75-1.78 30.906 1.266 15.711 4.711 26.215 15.082 31.406 30.516 5.454 16.218 5.204 32.597-.855 48.605-6.363 16.809-18.867 26.68-36.367 30.332-4.508.942-9.078 1.39-13.102 1.29M509.75 926.992c0-21.738.082-43.48-.059-65.219-.035-5.242 3.23-12.195 10.442-14.753 9.32-3.31 19.137 3.566 19.672 13.726.047.813.02 1.633.02 2.45 0 42.66-.005 85.324.01 127.988.005 2.367-.151 4.68-1.023 6.91-2.605 6.66-9.457 10.488-16.515 9.21-7.258-1.308-12.516-7.28-12.531-14.48-.043-21.941-.016-43.886-.016-65.832M444.586 950.75v-39.52c0-2.144.023-4.289.633-6.375 1.902-6.503 7.984-11.058 15.094-10.535 7.132.528 12.648 6.223 13.292 13.383.11 1.219.086 2.45.086 3.676.004 26.344 0 52.691.004 79.035 0 2.145-.004 4.277-.59 6.379-1.914 6.852-8.128 11.219-15.23 10.644-6.758-.546-12.344-6.019-13.094-12.886-.156-1.418-.187-2.856-.187-4.281-.016-13.172-.008-26.344-.008-39.52M459.117 846.766c9.5.101 17.297 7.851 17.207 17.109-.086 9.352-8.18 17.375-17.492 17.34-8.957-.031-16.543-8.332-16.387-17.926.153-9.121 7.715-16.617 16.672-16.523" style="stroke:none;fill-rule:nonzero;fill:#1b9ad7;fill-opacity:1"/></svg>