<?xml version="1.0" encoding="utf-8"?>
<!-- Generator: Adobe Illustrator 22.1.0, SVG Export Plug-In . SVG Version: 6.00 Build 0)  -->
<svg version="1.1"
	 id="Layer_1" inkscape:version="0.91 r13725" sodipodi:docname="Vodafone.svg" xmlns:cc="http://creativecommons.org/ns#" xmlns:dc="http://purl.org/dc/elements/1.1/" xmlns:inkscape="http://www.inkscape.org/namespaces/inkscape" xmlns:rdf="http://www.w3.org/1999/02/22-rdf-syntax-ns#" xmlns:sodipodi="http://sodipodi.sourceforge.net/DTD/sodipodi-0.dtd" xmlns:svg="http://www.w3.org/2000/svg"
	 xmlns="http://www.w3.org/2000/svg" xmlns:xlink="http://www.w3.org/1999/xlink" x="0px" y="0px" viewBox="0 0 341.7 243.6"
	 style="enable-background:new 0 0 341.7 243.6;" xml:space="preserve">
<style type="text/css">
	.st0{fill:#ED1C24;}
</style>
<sodipodi:namedview  bordercolor="#666666" borderopacity="1" gridtolerance="10" guidetolerance="10" id="namedview16" inkscape:current-layer="Layer_1" inkscape:cx="246" inkscape:cy="149" inkscape:pageopacity="0" inkscape:pageshadow="2" inkscape:window-height="480" inkscape:window-maximized="0" inkscape:window-width="640" inkscape:window-x="0" inkscape:window-y="0" inkscape:zoom="0.6300813" objecttolerance="10" pagecolor="#ffffff" showgrid="false">
	</sodipodi:namedview>
<polyline id="polyline4291" class="st0" points="30.1,203.6 20.9,230.4 11.8,203.6 0,203.6 14.3,242.9 27.2,242.9 41.5,203.6 
	30.1,203.6 "/>
<path id="path4293" class="st0" d="M121.6,187.4v19.5c-3.3-2.6-7.3-4-11.4-4c-11,0-19.8,9.2-19.8,20.2c0,11.4,8.8,20.2,19.8,20.2
	c4,0,8.1-1.5,11.4-3.7v3.3h9.9v-55.5H121.6 M101.1,223c0-5.9,4.4-10.7,10.3-10.7c5.9,0,10.7,4.8,10.7,10.7c0,5.9-4.8,10.7-10.7,10.7
	C105.5,233.7,101.1,228.9,101.1,223L101.1,223z"/>
<path id="path4295" class="st0" d="M169.8,203.6v3.3c-0.4,0-0.4,0-0.4,0c-2.9-2.6-7-4-11.4-4c-10.7,0-19.5,9.2-19.5,20.2
	c0,11.4,8.8,20.2,19.5,20.2c4.4,0,8.5-1.5,11.8-3.7v3.3h9.9v-39.3L169.8,203.6 M148.8,223c0-5.9,4.8-10.7,10.7-10.7
	c5.9,0,10.7,4.8,10.7,10.7c0,5.9-4.8,10.7-10.7,10.7C153.6,233.7,148.8,228.9,148.8,223z"/>
<path id="path4297" class="st0" d="M207.2,203.6H201c0,0,0-1.5,0-2.6c0-2.2,0-5.5,4-5.5c1.1,0,1.8,0,1.8,0v-8.8c0,0-1.5,0-2.6,0
	c-9.2,0.4-13.2,3.3-13.2,12.9v4h-4.8v9.2h4.8v30.1h9.9v-30.1h6.2V203.6"/>
<path id="path4299" class="st0" d="M268.2,206.9c2.9-2.6,7-4,11.4-4c9.2,0,14.7,5.9,14.7,13.6v26.5H284v-23.1c0-5.5-4-7.3-7.3-7.3
	c-2.9,0-8.5,1.5-8.1,8.5v22H258v-39.3h10.3V206.9"/>
<path id="path4301" class="st0" d="M330.7,218.6c-0.7-4.4-4.8-7-9.2-7c-4.8,0-8.5,2.6-9.2,7H330.7 M312,226.3
	c0.4,4.8,4.4,8.5,9.6,8.5c4,0,6.6-1.5,8.1-4.4h11c-1.8,5.9-8.5,12.9-18.8,12.9c-12.1,0-20.6-9.2-20.6-20.2c0-11,9.2-20.2,20.6-20.2
	c11.8,0,19.9,9.9,19.9,20.2c0,2.2-0.4,3.3-0.4,3.3L312,226.3L312,226.3z"/>
<path id="path4303" class="st0" d="M71.3,203.9c-3.7,1.1-6.2,4.4-6.2,8.1c0,0.4,0,0.4,0,0.4c5.9,1.5,8.8,5.1,8.8,10.7
	c0,5.9-4.8,10.7-10.7,10.7c-5.9,0-11.4-5.1-11.4-12.1c0-9.2,7.3-17.3,18.4-17.6c0.4,0,0.4,0,0.7,0c-2.2-1.1-4.8-1.5-7.7-1.5
	c-11.4,0-20.9,9.2-20.9,20.6c0,11,9.6,20.2,20.9,20.2c11.8,0,21.3-9.2,21.3-20.2C84.5,214.6,79,207.2,71.3,203.9"/>
<path id="path4305" class="st0" d="M230.4,202.8c-11.4,0-20.9,8.8-20.9,20.2c0,8.5,5.5,15.8,12.9,18.7c3.7-0.7,6.6-4,6.6-8.1
	c-5.9-1.5-8.8-5.5-8.8-10.7c0-5.9,4.8-10.7,10.7-10.7c5.9,0,11.4,4.8,11.4,12.1c0,9.2-7.7,17.3-18.4,17.6c-0.4,0-0.7,0-1.1,0
	c2.6,0.7,5.1,1.5,7.7,1.5c11.8,0,21.3-9.2,21.3-20.6C251.7,211.6,242.2,202.8,230.4,202.8"/>
<path id="path4307" class="st0" d="M208,6.6C192.2,10.3,180,24.3,180,41.2c0,0.4,0,1.1,0,1.5c25.4,5.1,37.8,22,37.8,44.4
	c0,25-20.6,45.6-45.6,45.6s-48.5-20.9-48.5-52.2c0-37.8,32.3-73.5,78.6-74.6c1.1,0,2.2,0,3.7,0.4c-10.3-4-21.3-6.2-32.7-6.2
	c-50,0-90,39-90,87.1c0,48.1,40.1,87.1,90,87.1c49.6,0,89.7-39,89.7-87.1C263.1,51.1,240.3,19.8,208,6.6"/>
</svg>
