<svg viewBox="0 0 400 200" version="1.1" xmlns="http://www.w3.org/2000/svg" xmlns:xlink="http://www.w3.org/1999/xlink">
    <!-- Generator: Sketch 61 (89581) - https://sketch.com -->
    <title>stc logo</title>
    <desc>Created with Sketch.</desc>
    <g id="Page-1" stroke="none" stroke-width="1" fill="none" fill-rule="evenodd">
        <g id="stc-logo-white" fill="#4F008C" fill-rule="nonzero">
            <g id="Group">
                <path d="M194.026041,81.7782069 L194.026041,142.412138 C194.026041,149.565241 195.580248,154.849103 198.688662,157.957517 C202.421628,161.377655 207.396524,162.931862 214.237352,162.931862 C223.878179,162.931862 231.340248,159.515034 235.069903,156.715586 L235.069903,190.296828 C230.095007,194.650483 218.591559,199.625379 202.421628,199.625379 C186.563972,199.625379 173.814731,194.962759 165.107421,186.254897 C157.336386,178.172138 152.982731,166.664828 152.982731,152.361931 L152.982731,81.7782069 L194.026041,81.7782069 Z M64.3635862,37.3140966 C84.8866207,37.3140966 102.298483,44.4638897 113.493517,55.6589241 C120.64331,62.8125793 125.309241,71.5165793 126.242207,81.4663724 L91.728,89.2407172 C91.1034483,84.2658207 88.9285517,79.9116138 85.8201379,76.4914759 C80.8452414,71.5165793 73.3798621,68.7204414 64.6758621,68.7204414 C50.6808276,68.7204414 41.9768276,74.937269 41.9768276,83.9535448 C41.9768276,90.7949241 47.5729655,95.769269 57.5222069,97.6357517 L81.4664828,102.301683 C96.0783448,105.097821 107.585655,111.005683 115.668414,119.092303 C123.755034,127.175614 128.10869,137.749407 128.10869,149.565683 C128.10869,162.623338 123.134345,173.815062 114.735448,182.213407 C103.543724,193.096166 86.4408276,199.625269 65.6088276,199.625269 C44.1522759,199.625269 25.1862069,192.1632 13.3704828,179.722924 C5.90786207,172.264166 0.933517241,162.932303 3.13618863e-14,152.361821 L35.4477241,144.587476 C35.7566897,150.186372 37.9354483,155.161269 41.6651034,158.890372 C46.9517241,164.489821 55.3467586,167.9072 65.6088276,167.9072 C79.9122759,167.9072 88.6195862,162.311062 88.6195862,152.673545 C88.6195862,144.8992 83.3329655,140.545545 71.5166897,137.749407 L47.8846897,132.15051 C33.5817931,128.729821 22.6990345,123.134234 15.2369655,115.671614 C7.77434483,108.209545 4.04193103,98.5687172 4.04193103,87.065269 C4.04193103,74.0037517 9.32855172,62.1880276 18.6571034,53.4807172 C29.5398621,43.5309241 45.3975172,37.3140966 64.3635862,37.3140966 Z M326.797186,37.3143724 C350.741462,37.3143724 368.777324,46.0216828 381.21429,58.1463724 C389.918841,67.1626483 395.826703,78.0454069 398.626152,88.9281655 L361.624221,101.368441 C359.757738,95.4605793 356.9616,89.5527172 352.295669,84.8867862 C346.700083,79.2906483 338.925738,75.5615448 327.730703,75.5615448 C317.160221,75.5615448 307.519393,79.2906483 300.369048,86.4443034 C293.215945,93.9030621 288.8656,104.476855 288.8656,118.468028 C288.8656,132.150234 293.215945,143.032993 300.369048,150.495614 C307.519393,157.648717 317.471945,161.690097 328.042979,161.690097 C339.546428,161.690097 347.629738,157.648717 353.5376,152.049269 C358.515807,147.386648 361.624221,141.478786 363.178428,135.8832 L399.559117,148.00789 C396.450703,159.202924 390.542841,170.085683 380.902014,179.414234 C368.777324,191.229959 351.053738,199.624993 328.042979,199.624993 C305.656221,199.624993 285.4416,191.229959 271.142014,176.92651 C256.52629,162.311338 247.510014,142.100028 247.510014,118.468028 C247.510014,94.8360276 256.214014,74.6285793 270.517462,60.0128552 C284.82091,45.7094069 304.723255,37.3143724 326.797186,37.3143724 Z M235.069903,41.9768276 L235.069903,81.7782069 L194.026041,81.7782069 L194.026041,41.9768276 L235.069903,41.9768276 Z M194.026041,0 L194.026041,41.9768276 L152.982731,41.9768276 L152.982731,0 L194.026041,0 Z" id="Combined-Shape"></path>
            </g>
        </g>
    </g>
</svg>